<svg width="197" height="81" viewBox="0 0 197 81" fill="none" xmlns="http://www.w3.org/2000/svg">
<path d="M37.125 24.075C36.175 22.325 34.8 21 33 20.1C31.25 19.15 29.175 18.675 26.775 18.675C22.625 18.675 19.3 20.05 16.8 22.8C14.3 25.5 13.05 29.125 13.05 33.675C13.05 38.525 14.35 42.325 16.95 45.075C19.6 47.775 23.225 49.125 27.825 49.125C30.975 49.125 33.625 48.325 35.775 46.725C37.975 45.125 39.575 42.825 40.575 39.825H24.3V30.375H52.2V42.3C51.25 45.5 49.625 48.475 47.325 51.225C45.075 53.975 42.2 56.2 38.7 57.9C35.2 59.6 31.25 60.45 26.85 60.45C21.65 60.45 17 59.325 12.9 57.075C8.85 54.775 5.675 51.6 3.375 47.55C1.125 43.5 0 38.875 0 33.675C0 28.475 1.125 23.85 3.375 19.8C5.675 15.7 8.85 12.525 12.9 10.275C16.95 7.975 21.575 6.825 26.775 6.825C33.075 6.825 38.375 8.35 42.675 11.4C47.025 14.45 49.9 18.675 51.3 24.075H37.125Z" fill="white"/>
<path d="M72.1289 4.575V60.075H59.3039V4.575H72.1289Z" fill="white"/>
<path d="M122.748 18.225V60.075H109.923V54.375C108.623 56.225 106.848 57.725 104.598 58.875C102.398 59.975 99.948 60.525 97.248 60.525C94.048 60.525 91.223 59.825 88.773 58.425C86.323 56.975 84.423 54.9 83.073 52.2C81.723 49.5 81.048 46.325 81.048 42.675V18.225H93.798V40.95C93.798 43.75 94.523 45.925 95.973 47.475C97.423 49.025 99.3731 49.8 101.823 49.8C104.323 49.8 106.298 49.025 107.748 47.475C109.198 45.925 109.923 43.75 109.923 40.95V18.225H122.748Z" fill="white"/>
<path d="M144.785 24.15C146.035 22.2 147.76 20.625 149.96 19.425C152.16 18.225 154.735 17.625 157.685 17.625C161.135 17.625 164.26 18.5 167.06 20.25C169.86 22 172.06 24.5 173.66 27.75C175.31 31 176.135 34.775 176.135 39.075C176.135 43.375 175.31 47.175 173.66 50.475C172.06 53.725 169.86 56.25 167.06 58.05C164.26 59.8 161.135 60.675 157.685 60.675C154.785 60.675 152.21 60.075 149.96 58.875C147.76 57.675 146.035 56.125 144.785 54.225V80.025H131.96V18.225H144.785V24.15ZM163.085 39.075C163.085 35.875 162.185 33.375 160.385 31.575C158.635 29.725 156.46 28.8 153.86 28.8C151.31 28.8 149.135 29.725 147.335 31.575C145.585 33.425 144.71 35.95 144.71 39.15C144.71 42.35 145.585 44.875 147.335 46.725C149.135 48.575 151.31 49.5 153.86 49.5C156.41 49.5 158.585 48.575 160.385 46.725C162.185 44.825 163.085 42.275 163.085 39.075Z" fill="white"/>
<path d="M189.313 13.875C187.063 13.875 185.213 13.225 183.763 11.925C182.363 10.575 181.663 8.925 181.663 6.975C181.663 4.975 182.363 3.325 183.763 2.025C185.213 0.675 187.063 0 189.313 0C191.513 0 193.313 0.675 194.713 2.025C196.163 3.325 196.888 4.975 196.888 6.975C196.888 8.925 196.163 10.575 194.713 11.925C193.313 13.225 191.513 13.875 189.313 13.875ZM195.688 18.225V60.075H182.863V18.225H195.688Z" fill="white"/>
</svg>
