<svg width="1024" height="223" viewBox="0 0 1024 223" fill="none" xmlns="http://www.w3.org/2000/svg">
<path d="M236.884 11.3289V220.615H185.931V95.1029L139.15 220.615H98.0311L50.9523 94.8048V220.615H0V11.3289H60.1893L118.889 156.219L176.992 11.3289H236.884Z" fill="#1ABC9C"/>
<path d="M349.208 223C332.919 223 318.219 219.522 305.109 212.566C292.197 205.609 281.967 195.672 274.418 182.753C267.068 169.834 263.393 154.729 263.393 137.437C263.393 120.344 267.168 105.339 274.716 92.4198C282.265 79.3021 292.594 69.2651 305.705 62.3088C318.815 55.3525 333.515 51.8743 349.804 51.8743C366.092 51.8743 380.792 55.3525 393.903 62.3088C407.013 69.2651 417.343 79.3021 424.891 92.4198C432.44 105.339 436.214 120.344 436.214 137.437C436.214 154.53 432.34 169.635 424.593 182.753C417.045 195.672 406.616 205.609 393.307 212.566C380.196 219.522 365.497 223 349.208 223ZM349.208 178.877C358.941 178.877 367.185 175.299 373.939 168.144C380.892 160.989 384.368 150.754 384.368 137.437C384.368 124.121 380.991 113.885 374.237 106.73C367.682 99.5749 359.537 95.9973 349.804 95.9973C339.871 95.9973 331.628 99.5749 325.072 106.73C318.517 113.686 315.24 123.922 315.24 137.437C315.24 150.754 318.418 160.989 324.774 168.144C331.33 175.299 339.474 178.877 349.208 178.877Z" fill="#1ABC9C"/>
<path d="M514.198 0V220.615H463.245V0H514.198Z" fill="#1ABC9C"/>
<path d="M540.991 137.139C540.991 120.046 544.17 105.041 550.526 92.1217C557.081 79.2028 565.921 69.2651 577.045 62.3088C588.169 55.3525 600.585 51.8743 614.291 51.8743C625.216 51.8743 635.149 54.16 644.088 58.7313C653.225 63.3026 660.377 69.4639 665.541 77.2152V0H716.494V220.615H665.541V196.765C660.774 204.715 653.921 211.075 644.982 215.845C636.241 220.615 626.011 223 614.291 223C600.585 223 588.169 219.522 577.045 212.566C565.921 205.41 557.081 195.373 550.526 182.455C544.17 169.337 540.991 154.232 540.991 137.139ZM665.541 137.437C665.541 124.717 661.966 114.68 654.815 107.326C647.862 99.9724 639.32 96.2954 629.189 96.2954C619.059 96.2954 610.417 99.9724 603.266 107.326C596.314 114.481 592.837 124.419 592.837 137.139C592.837 149.859 596.314 159.996 603.266 167.548C610.417 174.902 619.059 178.579 629.189 178.579C639.32 178.579 647.862 174.902 654.815 167.548C661.966 160.194 665.541 150.157 665.541 137.437Z" fill="#1ABC9C"/>
<path d="M883.567 183.647H805.5L792.985 220.615H739.649L815.332 11.3289H874.33L950.013 220.615H896.081L883.567 183.647ZM870.456 144.294L844.533 67.6751L818.908 144.294H870.456Z" fill="#1ABC9C"/>
<path d="M1024 11.3289V220.615H973.048V11.3289H1024Z" fill="#1ABC9C"/>
</svg>
