<svg width="417" height="142" viewBox="0 0 417 142" fill="none" xmlns="http://www.w3.org/2000/svg">
<path d="M83.0401 0.774902V23.3949H55.7801V103H27.3601V23.3949H0.390137V0.774902H83.0401Z" fill="white"/>
<path d="M131.4 104.015C123.28 104.015 115.982 102.323 109.505 98.9399C103.125 95.5566 98.0982 90.7232 94.4249 84.4399C90.7516 78.1566 88.9149 70.7616 88.9149 62.2549C88.9149 53.8449 90.7516 46.4982 94.4249 40.2149C98.1949 33.9316 103.27 29.0982 109.65 25.7149C116.127 22.3316 123.425 20.6399 131.545 20.6399C139.665 20.6399 146.915 22.3316 153.295 25.7149C159.772 29.0982 164.847 33.9316 168.52 40.2149C172.29 46.4982 174.175 53.8449 174.175 62.2549C174.175 70.6649 172.29 78.0599 168.52 84.4399C164.847 90.7232 159.772 95.5566 153.295 98.9399C146.818 102.323 139.52 104.015 131.4 104.015ZM131.4 79.3649C135.363 79.3649 138.65 77.9149 141.26 75.0149C143.967 72.0182 145.32 67.7649 145.32 62.2549C145.32 56.7449 143.967 52.5399 141.26 49.6399C138.65 46.7399 135.412 45.2899 131.545 45.2899C127.678 45.2899 124.44 46.7399 121.83 49.6399C119.22 52.5399 117.915 56.7449 117.915 62.2549C117.915 67.8616 119.172 72.1149 121.685 75.0149C124.198 77.9149 127.437 79.3649 131.4 79.3649Z" fill="white"/>
<path d="M233.733 78.7849V103H221.408C200.624 103 190.233 92.7049 190.233 72.1149V45.2899H180.228V21.6549H190.233V1.9349H218.798V21.6549H233.588V45.2899H218.798V72.5499C218.798 74.7732 219.281 76.3682 220.248 77.3349C221.311 78.3016 223.051 78.7849 225.468 78.7849H233.733Z" fill="white"/>
<path d="M281.423 104.015C274.076 104.015 267.503 102.807 261.703 100.39C255.999 97.8766 251.456 94.4932 248.073 90.2399C244.786 85.8899 242.949 81.0082 242.563 75.5949H270.113C270.499 78.2049 271.708 80.2349 273.738 81.6849C275.768 83.1349 278.281 83.8599 281.278 83.8599C283.598 83.8599 285.434 83.3766 286.788 82.4099C288.141 81.4432 288.818 80.1866 288.818 78.6399C288.818 76.6099 287.706 75.1116 285.483 74.1449C283.259 73.1782 279.586 72.1149 274.463 70.9549C268.663 69.7949 263.829 68.4899 259.963 67.0399C256.096 65.5899 252.713 63.2216 249.813 59.9349C247.009 56.6482 245.608 52.2016 245.608 46.5949C245.608 41.7616 246.913 37.4116 249.523 33.5449C252.133 29.5816 255.951 26.4399 260.978 24.1199C266.101 21.7999 272.239 20.6399 279.393 20.6399C290.026 20.6399 298.388 23.2499 304.478 28.4699C310.568 33.6899 314.096 40.5532 315.063 49.0599H289.398C288.914 46.4499 287.754 44.4682 285.918 43.1149C284.178 41.6649 281.809 40.9399 278.813 40.9399C276.493 40.9399 274.704 41.3749 273.448 42.2449C272.288 43.1149 271.708 44.3232 271.708 45.8699C271.708 47.8032 272.819 49.3016 275.043 50.3649C277.266 51.3316 280.843 52.3466 285.773 53.4099C291.669 54.6666 296.551 56.0682 300.418 57.6149C304.381 59.1616 307.813 61.6749 310.713 65.1549C313.709 68.5382 315.208 73.1782 315.208 79.0749C315.208 83.8116 313.806 88.0649 311.003 91.8349C308.296 95.6049 304.381 98.6016 299.258 100.825C294.231 102.952 288.286 104.015 281.423 104.015Z" fill="white"/>
<path d="M416.76 21.6549L365.14 141.715H334.255L353.685 99.5199L320.335 21.6549H351.945L369.055 67.7649L385.585 21.6549H416.76Z" fill="white"/>
</svg>
