<svg width="521" height="243" viewBox="0 0 521 243" fill="none" xmlns="http://www.w3.org/2000/svg">
<path d="M288.532 104.096C288.336 101.648 287.418 99.7392 285.778 98.3685C284.162 96.9978 281.702 96.3125 278.397 96.3125C276.291 96.3125 274.565 96.5695 273.219 97.0835C271.897 97.573 270.918 98.2461 270.281 99.1028C269.645 99.9595 269.314 100.939 269.29 102.04C269.241 102.946 269.4 103.766 269.767 104.5C270.159 105.21 270.771 105.858 271.603 106.446C272.435 107.009 273.5 107.523 274.798 107.988C276.095 108.453 277.638 108.869 279.425 109.236L285.594 110.558C289.756 111.439 293.318 112.602 296.28 114.046C299.242 115.49 301.666 117.191 303.551 119.149C305.436 121.083 306.819 123.261 307.7 125.685C308.606 128.108 309.071 130.751 309.096 133.615C309.071 138.56 307.835 142.745 305.387 146.172C302.939 149.599 299.438 152.205 294.885 153.992C290.356 155.779 284.909 156.672 278.543 156.672C272.007 156.672 266.303 155.706 261.431 153.772C256.584 151.838 252.814 148.864 250.121 144.85C247.452 140.811 246.106 135.647 246.082 129.356H265.471C265.593 131.657 266.168 133.591 267.196 135.157C268.225 136.724 269.669 137.911 271.53 138.719C273.415 139.526 275.655 139.93 278.25 139.93C280.429 139.93 282.252 139.661 283.721 139.122C285.19 138.584 286.304 137.837 287.063 136.883C287.822 135.928 288.213 134.839 288.238 133.615C288.213 132.465 287.834 131.461 287.1 130.605C286.39 129.723 285.215 128.94 283.574 128.255C281.934 127.545 279.719 126.884 276.928 126.272L269.436 124.657C262.778 123.213 257.526 120.802 253.683 117.424C249.864 114.021 247.967 109.383 247.991 103.509C247.967 98.7357 249.24 94.5624 251.81 90.9888C254.405 87.3907 257.992 84.5881 262.57 82.581C267.172 80.5739 272.448 79.5703 278.397 79.5703C284.468 79.5703 289.719 80.5861 294.15 82.6177C298.581 84.6493 301.996 87.5131 304.395 91.2091C306.819 94.8806 308.043 99.1763 308.068 104.096H288.532Z" fill="#051521"/>
<path d="M349.415 99.3966V114.083H312.252V99.3966H349.415ZM319.45 85.8853H339.72V137.654C339.72 138.437 339.855 139.098 340.124 139.636C340.393 140.151 340.809 140.542 341.372 140.811C341.936 141.056 342.658 141.179 343.539 141.179C344.151 141.179 344.861 141.105 345.669 140.958C346.501 140.811 347.113 140.689 347.505 140.591L350.443 154.837C349.537 155.106 348.239 155.436 346.55 155.828C344.885 156.22 342.903 156.477 340.601 156.599C335.95 156.844 332.045 156.366 328.887 155.167C325.729 153.943 323.354 152.022 321.763 149.403C320.172 146.784 319.401 143.504 319.45 139.563V85.8853Z" fill="#051521"/>
<path d="M382.728 156.819C376.706 156.819 371.516 155.669 367.159 153.368C362.825 151.043 359.484 147.714 357.134 143.381C354.808 139.025 353.645 133.811 353.645 127.741C353.645 121.915 354.82 116.824 357.17 112.467C359.52 108.11 362.838 104.72 367.122 102.297C371.406 99.8739 376.461 98.6623 382.288 98.6623C386.548 98.6623 390.403 99.3231 393.855 100.645C397.307 101.967 400.257 103.888 402.705 106.409C405.153 108.906 407.038 111.941 408.36 115.515C409.682 119.088 410.343 123.115 410.343 127.594V132.293H359.961V121.132H391.689C391.664 119.517 391.248 118.097 390.44 116.873C389.657 115.625 388.592 114.658 387.245 113.973C385.923 113.263 384.418 112.908 382.728 112.908C381.088 112.908 379.583 113.263 378.212 113.973C376.841 114.658 375.739 115.612 374.907 116.836C374.099 118.06 373.67 119.492 373.622 121.132V133.175C373.622 134.986 374.001 136.601 374.76 138.021C375.519 139.441 376.608 140.554 378.028 141.362C379.448 142.17 381.162 142.574 383.169 142.574C384.565 142.574 385.838 142.378 386.988 141.986C388.163 141.595 389.167 141.032 389.999 140.297C390.832 139.539 391.444 138.633 391.835 137.58H410.343C409.707 141.497 408.201 144.899 405.826 147.787C403.452 150.651 400.306 152.878 396.389 154.469C392.496 156.036 387.943 156.819 382.728 156.819Z" fill="#051521"/>
<path d="M417.236 176.939V99.3966H437.359V109.236H437.8C438.534 107.327 439.612 105.577 441.032 103.986C442.451 102.37 444.214 101.085 446.319 100.131C448.425 99.1518 450.873 98.6623 453.664 98.6623C457.385 98.6623 460.922 99.6536 464.276 101.636C467.655 103.619 470.397 106.74 472.502 110.999C474.632 115.258 475.697 120.789 475.697 127.594C475.697 134.105 474.681 139.502 472.649 143.785C470.641 148.069 467.948 151.263 464.57 153.368C461.216 155.473 457.532 156.526 453.517 156.526C450.873 156.526 448.51 156.097 446.43 155.24C444.373 154.359 442.611 153.172 441.142 151.679C439.697 150.162 438.583 148.448 437.8 146.539H437.506V176.939H417.236ZM437.066 127.594C437.066 130.335 437.421 132.71 438.131 134.717C438.865 136.699 439.893 138.241 441.215 139.343C442.562 140.42 444.165 140.958 446.026 140.958C447.886 140.958 449.465 140.432 450.763 139.379C452.085 138.303 453.088 136.773 453.774 134.79C454.484 132.783 454.839 130.384 454.839 127.594C454.839 124.804 454.484 122.417 453.774 120.434C453.088 118.427 452.085 116.898 450.763 115.845C449.465 114.768 447.886 114.23 446.026 114.23C444.165 114.23 442.562 114.768 441.215 115.845C439.893 116.898 438.865 118.427 438.131 120.434C437.421 122.417 437.066 124.804 437.066 127.594Z" fill="#051521"/>
<path d="M482.81 155.791V99.3966H502.493V110.117H503.08C504.108 106.152 505.736 103.252 507.964 101.416C510.216 99.5801 512.848 98.6623 515.859 98.6623C516.741 98.6623 517.61 98.7357 518.467 98.8825C519.348 99.0049 520.192 99.1885 521 99.4333V116.726C519.997 116.383 518.76 116.126 517.291 115.955C515.823 115.784 514.562 115.698 513.509 115.698C511.526 115.698 509.739 116.151 508.148 117.057C506.581 117.938 505.345 119.186 504.439 120.802C503.533 122.393 503.08 124.265 503.08 126.419V155.791H482.81Z" fill="#051521"/>
<path d="M7.26095 182.85C7.99216 187.247 9.49661 191.591 12.5432 195.479C15.2588 198.933 19.0921 201.981 24.3797 204.422C18.8123 204.535 14.625 203.96 11.5701 203.044C7.19523 201.724 4.98693 199.857 3.75832 198.242C2.53005 196.628 2.25119 195.258 2.13739 194.596C1.69674 192.014 2.71274 188.447 5.43091 184.908C5.95654 184.221 6.57931 183.528 7.26095 182.85ZM139.668 121.163C141.486 122.456 143.02 123.896 144.345 125.441C134 132.199 124.739 139.87 118.367 147.876C112.399 155.417 108.812 163.541 110.014 171.383L32.6213 201.677C24.5699 199.154 19.8023 195.803 16.903 192.08C13.8564 188.192 12.6938 183.746 12.3092 178.742C13.4149 178.015 14.6025 177.341 15.8785 176.69C23.1587 179.994 30.2251 180.204 36.6777 178.137C43.3983 176.012 49.3862 171.578 54.9217 166.077C65.3561 155.703 74.291 141.334 82.5797 129.709C95.438 134.454 105.585 135.113 114.139 133.367C124.367 131.262 132.102 125.949 139.668 121.163ZM154.428 159.943C155.013 161.011 155.305 162.036 155.337 163.025C155.396 164.306 155.011 165.599 153.98 167.042L71.2739 194.54C63.7331 197.023 57.0289 198.962 51.0196 200.416L154.428 159.943ZM50.347 162.839C45.4041 167.639 40.2697 171.218 34.9945 172.893C31.202 174.097 27.3642 174.371 23.2094 173.425C28.5509 170.881 33.1818 168.026 37.2935 164.974L50.347 162.839ZM67.1266 142.237C63.6769 147.137 60.1232 151.947 56.4401 156.281L45.4628 158.097C50.173 153.586 54.105 148.906 57.7384 144.275L67.1266 142.237ZM147.491 129.987C148.471 131.791 149.268 133.706 149.918 135.709C151.771 141.472 152.364 148.049 152.599 154.723L115.33 169.306C114.95 163.797 117.598 157.708 122.702 151.305C128.549 143.987 137.459 136.573 147.491 129.987ZM73.0018 125.622C74.4678 126.317 75.8821 126.967 77.3041 127.587C75.4629 130.181 73.5987 132.865 71.7268 135.577L63.0092 137.471C66.2903 133.224 69.4882 129.176 73.0018 125.622ZM216.014 42.4388C210.996 61.8601 195.287 68.4701 188.06 69.3476L141.469 73.0935C138.207 73.1085 136.981 75.3303 142.038 76.4991C151.594 78.0524 178.414 78.6561 209.243 68.6448C197.64 86.2282 194.35 89.151 183.894 91.0812C173.438 93.0113 151.188 92.2389 137.066 90.1355C132.276 89.756 134.752 92.6761 136.934 93.6697C139.205 94.7042 152.306 105.252 189.252 94.8665C181.962 102.759 169.105 115.388 147.856 111.444C130.305 106.5 126.085 105.079 126.169 104.986C124.129 103.773 120.951 105.285 125.512 108.932C129.737 112.859 129.732 113.455 137.773 116.427C123.832 128.202 94.6559 136.07 75.2685 119.109C89.5802 114.401 117.68 99.0203 115.59 75.1566C114.323 66.0483 120.013 62.0066 123.017 61.1245C144.228 60.314 192.522 55.4428 216.014 42.4388Z" fill="url(#paint0_linear_568_137)"/>
<defs>
<linearGradient id="paint0_linear_568_137" x1="171.047" y1="41.4267" x2="24.3398" y2="235.055" gradientUnits="userSpaceOnUse">
<stop stop-color="#051521"/>
<stop offset="1" stop-color="#051521" stop-opacity="0.18"/>
</linearGradient>
</defs>
</svg>
