<svg width="521" height="244" viewBox="0 0 521 244" fill="none" xmlns="http://www.w3.org/2000/svg">
<path d="M288.531 104.592C288.335 102.145 287.417 100.235 285.777 98.8646C284.161 97.4939 281.701 96.8086 278.396 96.8086C276.291 96.8086 274.565 97.0656 273.218 97.5796C271.896 98.0691 270.917 98.7422 270.281 99.5989C269.644 100.456 269.314 101.435 269.289 102.536C269.24 103.442 269.399 104.262 269.767 104.996C270.158 105.706 270.77 106.355 271.603 106.942C272.435 107.505 273.5 108.019 274.797 108.484C276.095 108.949 277.637 109.365 279.424 109.732L285.594 111.054C289.755 111.935 293.317 113.098 296.28 114.542C299.242 115.986 301.665 117.687 303.55 119.645C305.435 121.579 306.819 123.758 307.7 126.181C308.606 128.604 309.071 131.247 309.095 134.111C309.071 139.056 307.835 143.241 305.386 146.668C302.938 150.095 299.438 152.701 294.884 154.488C290.355 156.275 284.908 157.168 278.543 157.168C272.007 157.168 266.302 156.202 261.431 154.268C256.583 152.334 252.813 149.36 250.12 145.346C247.452 141.307 246.106 136.143 246.081 129.852H265.47C265.592 132.153 266.168 134.087 267.196 135.653C268.224 137.22 269.669 138.407 271.529 139.215C273.414 140.022 275.654 140.426 278.249 140.426C280.428 140.426 282.252 140.157 283.721 139.619C285.19 139.08 286.303 138.334 287.062 137.379C287.821 136.424 288.213 135.335 288.237 134.111C288.213 132.961 287.834 131.957 287.099 131.101C286.389 130.219 285.214 129.436 283.574 128.751C281.934 128.041 279.718 127.38 276.927 126.768L269.436 125.153C262.777 123.709 257.526 121.298 253.682 117.92C249.863 114.518 247.966 109.879 247.991 104.005C247.966 99.2318 249.239 95.0585 251.81 91.4849C254.405 87.8868 257.991 85.0842 262.569 83.0771C267.172 81.07 272.447 80.0664 278.396 80.0664C284.467 80.0664 289.719 81.0822 294.15 83.1138C298.581 85.1454 301.996 88.0091 304.395 91.7052C306.819 95.3767 308.043 99.6724 308.067 104.592H288.531Z" fill="white"/>
<path d="M349.414 99.8927V114.579H312.252V99.8927H349.414ZM319.449 86.3814H339.72V138.15C339.72 138.933 339.854 139.594 340.123 140.133C340.393 140.647 340.809 141.038 341.372 141.307C341.935 141.552 342.657 141.675 343.539 141.675C344.151 141.675 344.861 141.601 345.668 141.454C346.501 141.307 347.113 141.185 347.504 141.087L350.442 155.333C349.536 155.602 348.239 155.932 346.55 156.324C344.885 156.716 342.902 156.973 340.601 157.095C335.949 157.34 332.045 156.863 328.887 155.663C325.729 154.439 323.354 152.518 321.763 149.899C320.171 147.28 319.4 144 319.449 140.059V86.3814Z" fill="white"/>
<path d="M382.728 157.315C376.706 157.315 371.516 156.165 367.158 153.864C362.825 151.539 359.483 148.21 357.133 143.878C354.807 139.521 353.644 134.307 353.644 128.237C353.644 122.411 354.82 117.32 357.17 112.963C359.52 108.606 362.837 105.216 367.121 102.793C371.405 100.37 376.461 99.1584 382.287 99.1584C386.547 99.1584 390.403 99.8192 393.855 101.141C397.306 102.463 400.256 104.384 402.705 106.905C405.153 109.402 407.038 112.437 408.36 116.011C409.682 119.584 410.343 123.611 410.343 128.09V132.79H359.961V121.628H391.688C391.664 120.013 391.247 118.593 390.44 117.369C389.656 116.121 388.591 115.154 387.245 114.469C385.923 113.759 384.417 113.404 382.728 113.404C381.088 113.404 379.582 113.759 378.211 114.469C376.84 115.154 375.739 116.109 374.906 117.332C374.098 118.556 373.67 119.988 373.621 121.628V133.671C373.621 135.482 374 137.097 374.759 138.517C375.518 139.937 376.608 141.05 378.028 141.858C379.448 142.666 381.161 143.07 383.169 143.07C384.564 143.07 385.837 142.874 386.988 142.482C388.163 142.091 389.167 141.528 389.999 140.793C390.831 140.035 391.443 139.129 391.835 138.077H410.343C409.706 141.993 408.201 145.395 405.826 148.283C403.451 151.147 400.305 153.375 396.388 154.966C392.496 156.532 387.942 157.315 382.728 157.315Z" fill="white"/>
<path d="M417.235 177.435V99.8927H437.359V109.732H437.8C438.534 107.823 439.611 106.073 441.031 104.482C442.451 102.867 444.214 101.582 446.319 100.627C448.424 99.6479 450.872 99.1584 453.663 99.1584C457.384 99.1584 460.922 100.15 464.276 102.132C467.654 104.115 470.396 107.236 472.501 111.495C474.631 115.754 475.696 121.285 475.696 128.09C475.696 134.601 474.68 139.998 472.648 144.281C470.641 148.565 467.948 151.759 464.57 153.864C461.216 155.969 457.531 157.022 453.516 157.022C450.872 157.022 448.51 156.593 446.429 155.737C444.373 154.855 442.61 153.668 441.141 152.175C439.697 150.658 438.583 148.944 437.8 147.035H437.506V177.435H417.235ZM437.065 128.09C437.065 130.831 437.42 133.206 438.13 135.213C438.864 137.195 439.893 138.737 441.215 139.839C442.561 140.916 444.165 141.454 446.025 141.454C447.886 141.454 449.465 140.928 450.762 139.876C452.084 138.799 453.088 137.269 453.773 135.286C454.483 133.279 454.838 130.88 454.838 128.09C454.838 125.3 454.483 122.913 453.773 120.931C453.088 118.923 452.084 117.394 450.762 116.341C449.465 115.264 447.886 114.726 446.025 114.726C444.165 114.726 442.561 115.264 441.215 116.341C439.893 117.394 438.864 118.923 438.13 120.931C437.42 122.913 437.065 125.3 437.065 128.09Z" fill="white"/>
<path d="M482.809 156.287V99.8927H502.492V110.614H503.08C504.108 106.648 505.736 103.748 507.964 101.912C510.216 100.076 512.848 99.1584 515.859 99.1584C516.74 99.1584 517.609 99.2318 518.466 99.3786C519.347 99.501 520.192 99.6846 521 99.9294V117.222C519.996 116.88 518.76 116.623 517.291 116.451C515.822 116.28 514.561 116.194 513.509 116.194C511.526 116.194 509.739 116.647 508.147 117.553C506.58 118.434 505.344 119.682 504.438 121.298C503.533 122.889 503.08 124.761 503.08 126.915V156.287H482.809Z" fill="white"/>
<path d="M7.2601 183.347C7.99128 187.745 9.49592 192.089 12.5424 195.977C15.258 199.431 19.0921 202.479 24.3798 204.92C18.812 205.033 14.6242 204.458 11.5692 203.542C7.19465 202.222 4.98703 200.355 3.75841 198.74C2.52994 197.126 2.25031 195.756 2.13654 195.094C1.69589 192.512 2.71283 188.945 5.431 185.407C5.95661 184.72 6.5785 184.026 7.2601 183.347ZM139.668 121.662C141.486 122.954 143.02 124.394 144.346 125.939C134 132.697 124.738 140.368 118.366 148.374C112.398 155.914 108.812 164.039 110.014 171.881L32.6214 202.175C24.5695 199.653 19.8015 196.302 16.9022 192.578C13.8555 188.69 12.6939 184.245 12.3093 179.24C13.4149 178.513 14.6017 177.839 15.8776 177.188C23.1579 180.492 30.2252 180.703 36.6778 178.635C43.3983 176.51 49.3864 172.076 54.9218 166.576C65.3561 156.201 74.2911 141.832 82.5798 130.207C95.4379 134.952 105.586 135.611 114.139 133.865C124.367 131.76 132.102 126.448 139.668 121.662ZM154.427 160.441C155.012 161.509 155.304 162.534 155.337 163.523C155.395 164.804 155.011 166.097 153.98 167.54L71.274 195.039C63.733 197.521 57.0281 199.46 51.0188 200.914L154.427 160.441ZM50.3461 163.337C45.4033 168.136 40.2688 171.716 34.9936 173.391C31.2013 174.595 27.3641 174.869 23.2095 173.923C28.5509 171.379 33.181 168.524 37.2926 165.472L50.3461 163.337ZM67.1257 142.735C63.676 147.635 60.1233 152.446 56.4402 156.779L45.4629 158.596C50.173 154.084 54.1042 149.404 57.7376 144.773L67.1257 142.735ZM147.491 130.485C148.471 132.289 149.268 134.204 149.918 136.207C151.771 141.97 152.364 148.547 152.599 155.221L115.329 169.804C114.949 164.295 117.598 158.207 122.702 151.803C128.549 144.485 137.459 137.071 147.491 130.485ZM73.0009 126.12C74.4671 126.815 75.882 127.465 77.3042 128.086C75.463 130.679 73.5988 133.363 71.7269 136.076L63.0083 137.969C66.2894 133.722 69.4874 129.674 73.0009 126.12ZM216.013 42.9368C210.995 62.3577 195.288 68.9681 188.06 69.8458L141.469 73.5917C138.207 73.6066 136.981 75.8285 142.038 76.9973C151.594 78.5506 178.414 79.1539 209.243 69.1428C197.639 86.7258 194.349 89.6492 183.894 91.5794C173.438 93.5095 151.188 92.7371 137.066 90.6337C132.276 90.2541 134.752 93.1743 136.934 94.1679C139.206 95.2034 152.308 105.75 189.252 95.3647C181.963 103.258 169.104 115.886 147.855 111.942C130.316 107.001 126.09 105.578 126.168 105.484C124.128 104.271 120.95 105.783 125.511 109.43C129.736 113.357 129.732 113.953 137.773 116.925C123.832 128.7 94.655 136.568 75.2676 119.607C89.5793 114.899 117.68 99.5186 115.59 75.6545C114.322 66.5462 120.013 62.5048 123.017 61.6227C144.228 60.8122 192.521 55.9406 216.013 42.9368Z" fill="url(#paint0_linear_555_109)"/>
<defs>
<linearGradient id="paint0_linear_555_109" x1="171.046" y1="41.9247" x2="24.3389" y2="235.553" gradientUnits="userSpaceOnUse">
<stop stop-color="white"/>
<stop offset="1" stop-color="#737373" stop-opacity="0.54"/>
</linearGradient>
</defs>
</svg>
