<svg width="198" height="81" viewBox="0 0 198 81" fill="none" xmlns="http://www.w3.org/2000/svg">
<path d="M37.6 25C36.65 23.25 35.275 21.925 33.475 21.025C31.725 20.075 29.65 19.6 27.25 19.6C23.1 19.6 19.775 20.975 17.275 23.725C14.775 26.425 13.525 30.05 13.525 34.6C13.525 39.45 14.825 43.25 17.425 46C20.075 48.7 23.7 50.05 28.3 50.05C31.45 50.05 34.1 49.25 36.25 47.65C38.45 46.05 40.05 43.75 41.05 40.75H24.775V31.3H52.675V43.225C51.725 46.425 50.1 49.4 47.8 52.15C45.55 54.9 42.675 57.125 39.175 58.825C35.675 60.525 31.725 61.375 27.325 61.375C22.125 61.375 17.475 60.25 13.375 58C9.325 55.7 6.15 52.525 3.85 48.475C1.6 44.425 0.474998 39.8 0.474998 34.6C0.474998 29.4 1.6 24.775 3.85 20.725C6.15 16.625 9.325 13.45 13.375 11.2C17.425 8.89999 22.05 7.74999 27.25 7.74999C33.55 7.74999 38.85 9.27499 43.15 12.325C47.5 15.375 50.375 19.6 51.775 25H37.6Z" fill="black"/>
<path d="M72.6039 5.49999V61H59.7789V5.49999H72.6039Z" fill="black"/>
<path d="M123.223 19.15V61H110.398V55.3C109.098 57.15 107.323 58.65 105.073 59.8C102.873 60.9 100.423 61.45 97.723 61.45C94.523 61.45 91.698 60.75 89.248 59.35C86.798 57.9 84.898 55.825 83.548 53.125C82.198 50.425 81.523 47.25 81.523 43.6V19.15H94.273V41.875C94.273 44.675 94.998 46.85 96.448 48.4C97.898 49.95 99.8481 50.725 102.298 50.725C104.798 50.725 106.773 49.95 108.223 48.4C109.673 46.85 110.398 44.675 110.398 41.875V19.15H123.223Z" fill="black"/>
<path d="M145.26 25.075C146.51 23.125 148.235 21.55 150.435 20.35C152.635 19.15 155.21 18.55 158.16 18.55C161.61 18.55 164.735 19.425 167.535 21.175C170.335 22.925 172.535 25.425 174.135 28.675C175.785 31.925 176.61 35.7 176.61 40C176.61 44.3 175.785 48.1 174.135 51.4C172.535 54.65 170.335 57.175 167.535 58.975C164.735 60.725 161.61 61.6 158.16 61.6C155.26 61.6 152.685 61 150.435 59.8C148.235 58.6 146.51 57.05 145.26 55.15V80.95H132.435V19.15H145.26V25.075ZM163.56 40C163.56 36.8 162.66 34.3 160.86 32.5C159.11 30.65 156.935 29.725 154.335 29.725C151.785 29.725 149.61 30.65 147.81 32.5C146.06 34.35 145.185 36.875 145.185 40.075C145.185 43.275 146.06 45.8 147.81 47.65C149.61 49.5 151.785 50.425 154.335 50.425C156.885 50.425 159.06 49.5 160.86 47.65C162.66 45.75 163.56 43.2 163.56 40Z" fill="black"/>
<path d="M189.788 14.8C187.538 14.8 185.688 14.15 184.238 12.85C182.838 11.5 182.138 9.84999 182.138 7.89999C182.138 5.89999 182.838 4.24999 184.238 2.94999C185.688 1.59999 187.538 0.924988 189.788 0.924988C191.988 0.924988 193.788 1.59999 195.188 2.94999C196.638 4.24999 197.363 5.89999 197.363 7.89999C197.363 9.84999 196.638 11.5 195.188 12.85C193.788 14.15 191.988 14.8 189.788 14.8ZM196.163 19.15V61H183.338V19.15H196.163Z" fill="black"/>
</svg>
